<svg xmlns="http://www.w3.org/2000/svg" width="40.673" height="40.673" viewBox="0 0 40.673 40.673"><defs><style>.a{fill:#f4eeff;}.b{fill:#12131b;}</style></defs><g transform="translate(-17.887 -17.888)"><g transform="translate(17.887 17.888)"><path class="a" d="M-6008.113-4449.192a20.359,20.359,0,0,1-20.335-20.338,20.358,20.358,0,0,1,20.335-20.335,20.36,20.36,0,0,1,20.337,20.335A20.361,20.361,0,0,1-6008.113-4449.192Zm0-40.53a20.215,20.215,0,0,0-20.193,20.192,20.216,20.216,0,0,0,20.193,20.195,20.217,20.217,0,0,0,20.194-20.195A20.216,20.216,0,0,0-6008.113-4489.722Z" transform="translate(6028.448 4489.865)"/></g><path class="b" d="M-5933.577-4425.371l.955-6.221h-5.969v-4.036c0-1.7.832-3.361,3.508-3.361h2.712v-5.3a33.068,33.068,0,0,0-4.816-.42c-4.916,0-8.127,2.979-8.127,8.373v4.74h-5.464v6.221h5.464v15.037h6.724v-15.037Z" transform="translate(5979.815 4467.286)"/></g></svg>