<svg xmlns="http://www.w3.org/2000/svg" width="45.433" height="45.434" viewBox="0 0 45.433 45.434"><defs><style>.a{fill:#f4eeff;}.b{fill:#12131b;}</style></defs><g transform="translate(-17.887 -17.888)"><g transform="translate(17.887 17.888)"><path class="a" d="M-6005.733-3864.932a22.742,22.742,0,0,1-22.715-22.718,22.741,22.741,0,0,1,22.715-22.716,22.743,22.743,0,0,1,22.717,22.716A22.744,22.744,0,0,1-6005.733-3864.932Zm0-45.272a22.581,22.581,0,0,0-22.556,22.555,22.582,22.582,0,0,0,22.556,22.556,22.582,22.582,0,0,0,22.557-22.556A22.582,22.582,0,0,0-6005.733-3910.2Z" transform="translate(6028.448 3910.366)"/></g><path class="b" d="M-5932.752-3823.944a9.2,9.2,0,0,0-9.214,9.215,9.2,9.2,0,0,0,9.214,9.213,9.2,9.2,0,0,0,9.212-9.213A9.2,9.2,0,0,0-5932.752-3823.944Zm0,15.2a6,6,0,0,1-5.991-5.989,6,6,0,0,1,5.991-5.991,6,6,0,0,1,5.989,5.991,6,6,0,0,1-5.989,5.989Zm11.739-15.58a2.145,2.145,0,0,1-2.149,2.148,2.144,2.144,0,0,1-2.148-2.148,2.147,2.147,0,0,1,2.148-2.148A2.148,2.148,0,0,1-5921.013-3824.32Zm6.1,2.18c-.14-2.879-.8-5.429-2.9-7.528s-4.655-2.758-7.533-2.9c-2.964-.168-11.857-.168-14.824,0-2.871.138-5.423.794-7.532,2.9s-2.759,4.65-2.9,7.529c-.167,2.968-.167,11.86,0,14.828.137,2.879.8,5.429,2.9,7.53s4.654,2.759,7.532,2.9c2.967.168,11.86.168,14.824,0,2.878-.137,5.429-.794,7.533-2.9s2.76-4.651,2.9-7.53c.167-2.967.167-11.851,0-14.819Zm-3.834,18a6.072,6.072,0,0,1-3.417,3.416c-2.362.938-7.979.722-10.59.722s-8.238.209-10.594-.722a6.063,6.063,0,0,1-3.416-3.416c-.94-2.366-.722-7.979-.722-10.592s-.208-8.237.722-10.593a6.061,6.061,0,0,1,3.416-3.417c2.366-.937,7.978-.72,10.594-.72s8.233-.209,10.59.72a6.067,6.067,0,0,1,3.417,3.417c.941,2.365.722,7.979.722,10.593S-5917.8-3806.493-5918.744-3804.136Z" transform="translate(5973.389 3855.351)"/></g></svg>