<svg id="Layer_1" data-name="Layer 1" xmlns="http://www.w3.org/2000/svg" viewBox="0 0 306 309.36"><defs><style>.cls-1{fill:#11121b;}</style></defs><title>me time logo</title><path d="M77.28,184.19v-.56c2.85,0,5.33,0,5.33-7.81V132.75c0-7.82-2.48-7.82-5.33-7.82v-.56H87.37l14.33,58.94L116,124.37h8.24v.56c-2.85,0-2.85,0-2.85,7.82v43c0,7.89,0,7.89,2.85,7.89v.56h-11.1v-.56c2.79,0,2.86-.64,2.86-9.41,0-10.05.19-37.17.19-48H116l-14.09,58H96.5L83.24,128.84h-.19v47c0,7.81,2.48,7.81,5.33,7.81v.56Z"/><path d="M139.77,143.51c7,0,10.59,5.75,10.59,12.21,0,8.77-10.59,10.76-18.71,11,.25,7.5,1.65,17.71,8.12,17.71,7.16,0,10.15-10.29,10.15-18.26h.44c0,8.37-3,18.82-10.59,18.82-8.82.08-13.9-7.58-13.9-21.54C125.87,150.93,131.33,143.51,139.77,143.51Zm-8.19,19.94c0,.8,0,1.76.07,2.72,10-.24,13.83-2.56,13.83-13.16,0-6.7-1.46-8.94-5.71-8.94C132.85,144.07,131.58,155.88,131.58,163.45Z"/><path d="M155.46,137.77l1.27-13.4h35.15l1.27,13.4h-.45c-1-10.69-4.63-12.84-12-12.84H177l.06,50.89c0,7.81,0,7.81,2.86,7.81v.56h-11.1v-.56c2.79,0,2.79-.56,2.85-7.81V124.93H167.9c-7.36,0-11,2.15-12,12.84Z"/><path d="M193,184.19v-.56c2.79,0,2.86-.56,2.86-7.81V152.69c0-7.26,0-7.82-2.8-7.82v-.56h8.19v31.51c0,7.81,0,7.81,2.85,7.81v.56Zm2.35-48.33c0-2.24,1.39-4,3.17-4s3.17,1.75,3.17,4-1.39,4-3.17,4S195.37,138.09,195.37,135.86Z"/><path d="M204.76,183.63c2.79,0,2.85-.56,2.85-7.81V152.69c0-7.26,0-7.82-2.79-7.82v-.56h7.74l.44,8.14v.16c1.21-5.67,4.89-9.18,8.63-9.18,5.46,0,8.5,3.51,9.52,10.69.89-6.62,4.82-10.69,8.94-10.69,6.73,0,9.77,5.35,9.83,16.43l.07,16c0,7.25.06,7.81,2.85,7.81v.56h-11.1v-.56c2.79,0,2.86,0,2.86-7.81V163.45c0-10.44-.83-18.74-5.52-18.82-4.13-.08-7.55,4.71-7.68,12,.06,1,.13,2.08.13,3.19l.06,16c0,7.25.06,7.81,2.86,7.81v.56H223.34v-.56c2.8,0,2.92,0,2.86-7.81l-.06-12.37c-.07-10.44-.77-18.74-5.46-18.82-4.19-.08-7.68,4.87-7.68,12.36v18.83c0,7.81,0,7.81,2.86,7.81v.56h-11.1Z"/><path d="M267.75,143.51c7,0,10.6,5.75,10.6,12.21,0,8.77-10.6,10.76-18.72,11,.25,7.5,1.65,17.71,8.12,17.71,7.17,0,10.15-10.29,10.15-18.26h.45c0,8.37-3,18.82-10.6,18.82-8.82.08-13.89-7.58-13.89-21.54C253.86,150.93,259.31,143.51,267.75,143.51Zm-8.18,19.94c0,.8,0,1.76.06,2.72,10-.24,13.83-2.56,13.83-13.16,0-6.7-1.46-8.94-5.71-8.94C260.84,144.07,259.57,155.88,259.57,163.45Z"/><path class="cls-1" d="M36.68,124.37l4.46,8.85,7.69-8.85Zm1.2.74H47.2l-5.89,6.79Z"/><path class="cls-1" d="M50.31,155.81l-.39-1.13.39-1.13.17-.48L57,134.29H41.59l6.58,18.79.17.48.39,1.12-.39,1.12-.17.48-6.58,18.79H57l-6.49-18.78ZM42.64,135H55.93l-6.4,18.52-.21.59-.2-.58Zm0,39.3,6.48-18.53.2-.58.21.59,6.4,18.52Z"/><path class="cls-1" d="M49.33,125l-7.42,8.54H56.75Zm0,1.13,5.8,6.68H43.53Z"/><path class="cls-1" d="M49.83,124.37l7.63,8.78L62,124.37Zm7.47,7.47-5.85-6.73h9.32Z"/><path class="cls-1" d="M36.17,125l-8,8.47H40.44ZM36,126.3l3.26,6.46H29.9Z"/><path class="cls-1" d="M71,134.29H57.75l-6.7,19.39-.35,1,.35,1,6.7,19.39H71L52,154.68Zm-1.7,40h-11l-6.49-18.77Zm-11-39.3h11L51.79,153.8Z"/><path class="cls-1" d="M47.6,153.7l-6.79-19.41H27.65l19,20.39-19,20.39H40.81l6.79-19.41.34-1ZM29.35,135H40.28l6.56,18.74Zm10.93,39.3H29.35l17.49-18.74Z"/><path class="cls-1" d="M62.49,125l-4.37,8.47H70.48Zm.17,1.27,6.1,6.47H59.33Z"/><path class="cls-1" d="M41.14,176.14,36.68,185H48.83Zm.17,1.32,5.89,6.79H37.88Z"/><path class="cls-1" d="M41.91,175.87l7.42,8.54,7.42-8.54Zm1.62.73h11.6l-5.8,6.68Z"/><path class="cls-1" d="M57.46,176.21,49.83,185H62Zm-.16,1.31,3.47,6.73H51.45Z"/><path class="cls-1" d="M28.18,175.87l8,8.47,4.27-8.47Zm7.8,7.19L29.9,176.6h9.34Z"/><path class="cls-1" d="M58.12,175.87l4.37,8.47,8-8.47Zm1.21.73h9.43l-6.1,6.47Z"/></svg>