<svg xmlns="http://www.w3.org/2000/svg" width="36.46" height="29.61" viewBox="0 0 36.46 29.61"><defs><style>.a{fill:#12131b;}</style></defs><g transform="translate(-22.378 -25.833)"><path class="a" d="M-5918.163-3233.691c.023.323.023.646.023.972,0,9.877-7.519,21.259-21.26,21.259a21.121,21.121,0,0,1-11.475-3.354,15.548,15.548,0,0,0,1.808.091,14.955,14.955,0,0,0,9.272-3.19,7.484,7.484,0,0,1-6.983-5.183,9.531,9.531,0,0,0,1.409.117,7.852,7.852,0,0,0,1.966-.256,7.473,7.473,0,0,1-5.991-7.333v-.094a7.513,7.513,0,0,0,3.378.949,7.472,7.472,0,0,1-3.332-6.223,7.407,7.407,0,0,1,1.021-3.771,21.232,21.232,0,0,0,15.4,7.82,8.342,8.342,0,0,1-.185-1.712,7.467,7.467,0,0,1,7.472-7.471,7.449,7.449,0,0,1,5.458,2.36,14.72,14.72,0,0,0,4.746-1.8,7.469,7.469,0,0,1-3.286,4.117,14.992,14.992,0,0,0,4.3-1.156,16.061,16.061,0,0,1-3.749,3.863Z" transform="translate(5973.252 3266.903)"/></g></svg>